<?xml version="1.0" encoding="utf-8"?>
<!-- Generator: Adobe Illustrator 26.5.0, SVG Export Plug-In . SVG Version: 6.00 Build 0)  -->
<svg version="1.1" id="Layer_1" xmlns="http://www.w3.org/2000/svg" xmlns:xlink="http://www.w3.org/1999/xlink" x="0px" y="0px"
	 viewBox="0 0 349.3 49.3" style="enable-background:new 0 0 349.3 49.3;" xml:space="preserve">
<style type="text/css">
	.st0{fill:#2B3C64;}
	.st1{fill:#A1A0B7;}
</style>
<g id="logos">
	<g>
		<path class="st0" d="M14.8,21.1L14.8,21.1l2.5,6.2h-5.1L14.8,21.1z M14.1,19.2L8.6,31.8h1.7l1.3-3.1h6.3l1.3,3.1h1.7l-5.4-12.6
			L14.1,19.2z"/>
		<polygon class="st0" points="31.9,19.2 33.3,19.2 33.4,30.4 39.1,30.4 39.1,31.8 31.9,31.8 		"/>
		<polygon class="st0" points="50,19.1 51.5,19.1 51.5,30.4 57.3,30.4 57.3,31.8 50,31.8 		"/>
		<g>
			<path class="st0" d="M74.2,21.3c-0.2-0.4-0.6-0.7-1-0.9c-0.4-0.2-0.9-0.3-1.3-0.3c-0.3,0-0.6,0.1-1,0.1c-0.3,0.1-0.6,0.2-0.9,0.4
				c-0.3,0.2-0.5,0.4-0.6,0.7c-0.2,0.3-0.2,0.6-0.2,1c0,0.3,0,0.5,0.1,0.8c0.1,0.2,0.2,0.4,0.4,0.6c0.2,0.2,0.5,0.4,0.8,0.5
				c0.4,0.2,0.8,0.3,1.3,0.5c0.5,0.2,1,0.3,1.4,0.5c0.4,0.2,0.8,0.4,1.2,0.7c0.4,0.3,0.6,0.6,0.8,1c0.4,1,0.4,2.2-0.1,3.2
				c-0.2,0.4-0.6,0.8-1,1.2c-0.4,0.3-0.9,0.5-1.4,0.7C72.5,32,71.9,32,71.3,32c-0.4,0-0.7,0-1.1-0.1c-0.4,0-0.8-0.1-1.2-0.2
				c-0.3-0.1-0.7-0.3-1-0.5c-0.3-0.2-0.6-0.5-0.8-0.8l1.3-1c0.3,0.5,0.7,0.8,1.1,1c0.5,0.2,1,0.4,1.5,0.4c0.3,0,0.6-0.1,1-0.1
				c0.3-0.1,0.6-0.2,0.9-0.4c0.3-0.2,0.5-0.4,0.6-0.7c0.2-0.3,0.3-0.6,0.2-1c0-0.3-0.1-0.7-0.2-1c-0.1-0.3-0.3-0.5-0.6-0.6
				c-0.3-0.2-0.7-0.4-1-0.5l-1.5-0.5c-0.4-0.1-0.8-0.3-1.2-0.5c-0.3-0.2-0.7-0.4-1-0.7c-0.3-0.3-0.5-0.6-0.7-1
				c-0.2-0.4-0.3-0.9-0.2-1.4c0-0.6,0.1-1.1,0.4-1.6c0.2-0.4,0.6-0.8,1-1.1c0.4-0.3,0.9-0.5,1.4-0.7c0.5-0.2,1.1-0.2,1.6-0.2
				c0.7,0,1.3,0.1,2,0.3c0.6,0.2,1.1,0.6,1.6,1.1L74.2,21.3z"/>
			<path class="st0" d="M93.3,30.7c0.7,0,1.4-0.1,2-0.4c0.6-0.3,1.1-0.6,1.6-1.1c0.4-0.5,0.8-1,1-1.7c0.2-0.7,0.4-1.3,0.4-2
				c0-0.7-0.1-1.4-0.4-2c-0.2-0.6-0.6-1.2-1-1.7c-0.4-0.5-1-0.9-1.6-1.1c-0.6-0.3-1.3-0.4-2-0.4c-0.7,0-1.4,0.1-2,0.4
				c-0.6,0.3-1.1,0.6-1.6,1.1c-0.4,0.5-0.8,1-1,1.7c-0.2,0.7-0.4,1.3-0.4,2c0,0.7,0.1,1.4,0.4,2c0.2,0.6,0.6,1.2,1,1.7
				c0.4,0.5,1,0.9,1.6,1.1C91.9,30.5,92.6,30.7,93.3,30.7 M93.3,32c-0.9,0-1.8-0.2-2.6-0.5c-0.8-0.3-1.5-0.8-2.1-1.4
				c-0.6-0.6-1-1.3-1.3-2.1c-0.3-0.8-0.5-1.7-0.5-2.7c0-0.9,0.2-1.8,0.5-2.6c0.6-1.6,1.9-2.9,3.5-3.5c0.8-0.3,1.7-0.5,2.6-0.5
				c0.9,0,1.8,0.2,2.6,0.5c0.8,0.3,1.5,0.8,2.1,1.4c0.6,0.6,1.1,1.3,1.4,2.1c0.3,0.8,0.5,1.7,0.5,2.6c0,0.9-0.2,1.8-0.5,2.6
				c-0.3,0.8-0.8,1.5-1.4,2.1c-0.6,0.6-1.3,1.1-2.1,1.4C95.1,31.9,94.2,32.1,93.3,32"/>
			<path class="st0" d="M113,24.6h2.5c0.6,0,1.3-0.2,1.8-0.5c0.9-0.8,1-2.1,0.2-3c-0.1-0.1-0.1-0.1-0.2-0.2
				c-0.5-0.4-1.2-0.5-1.8-0.5H113L113,24.6z M111.5,19.1h3.7c0.6,0,1.1,0.1,1.7,0.2c0.5,0.1,1,0.3,1.4,0.6c0.4,0.3,0.7,0.6,1,1.1
				c0.3,0.5,0.4,1.1,0.4,1.6c0,0.6-0.1,1.2-0.4,1.7c-0.2,0.4-0.6,0.8-1,1.1c-0.4,0.3-0.9,0.4-1.3,0.6c-0.5,0.1-0.9,0.2-1.4,0.2H113
				v5.7h-1.5L111.5,19.1z"/>
			<path class="st0" d="M132.8,24.6h2.5c0.6,0,1.3-0.1,1.8-0.5c0.9-0.8,0.9-2.1,0.2-3c-0.1-0.1-0.1-0.1-0.2-0.2
				c-0.5-0.4-1.2-0.5-1.8-0.5h-2.5V24.6z M131.3,19.1h3.7c0.6,0,1.1,0.1,1.7,0.2c0.5,0.1,1,0.3,1.4,0.6c0.4,0.3,0.7,0.6,1,1.1
				c0.3,0.5,0.4,1.1,0.4,1.6c0,0.6-0.1,1.2-0.4,1.7c-0.2,0.4-0.6,0.8-1,1.1c-0.4,0.3-0.9,0.5-1.4,0.6c-0.5,0.1-0.9,0.2-1.4,0.2h-2.5
				v5.7h-1.5L131.3,19.1z"/>
		</g>
		<path class="st0" d="M216,20.9L216,20.9l-2.6,6.2h5.1L216,20.9z M215.4,19h1.4l5.4,12.6h-1.7l-1.3-3.1h-6.3l-1.3,3.1h-1.6
			L215.4,19z"/>
		<polygon class="st0" points="233.1,19 234.6,19 234.6,30.2 240.4,30.2 240.4,31.6 233.1,31.6 		"/>
		<polygon class="st0" points="251.3,19 252.8,19 252.8,30.2 258.5,30.2 258.5,31.6 251.3,31.6 		"/>
		<g>
			<path class="st0" d="M275.5,21.2c-0.2-0.4-0.5-0.7-1-0.9c-0.4-0.2-0.9-0.3-1.3-0.3c-0.3,0-0.6,0-1,0.1c-0.3,0.1-0.6,0.2-0.9,0.4
				c-0.3,0.2-0.5,0.4-0.6,0.7c-0.2,0.3-0.2,0.6-0.2,1c0,0.3,0,0.5,0.1,0.8c0.1,0.2,0.2,0.4,0.4,0.6c0.2,0.2,0.5,0.4,0.8,0.5
				c0.4,0.2,0.8,0.3,1.3,0.5c0.5,0.2,1,0.3,1.4,0.5c0.4,0.2,0.8,0.4,1.2,0.7c0.4,0.3,0.6,0.6,0.8,1c0.2,0.5,0.3,1,0.3,1.5
				c0,0.6-0.2,1.1-0.5,1.6c-0.2,0.4-0.6,0.8-1,1.2c-0.4,0.3-0.9,0.5-1.4,0.7c-0.5,0.2-1.1,0.2-1.7,0.2c-0.4,0-0.7,0-1.1-0.1
				c-0.4-0.1-0.7-0.2-1.1-0.3c-0.3-0.1-0.7-0.3-1-0.5c-0.3-0.2-0.6-0.5-0.8-0.8l1.3-1.1c0.3,0.5,0.7,0.8,1.1,1.1
				c0.8,0.4,1.7,0.5,2.5,0.2c0.3-0.1,0.6-0.2,0.9-0.4c0.3-0.2,0.5-0.4,0.6-0.7c0.2-0.3,0.3-0.6,0.2-1c0-0.3-0.1-0.7-0.2-1
				c-0.1-0.3-0.4-0.5-0.6-0.6c-0.3-0.2-0.7-0.4-1-0.5l-1.5-0.5c-0.4-0.1-0.8-0.3-1.2-0.5c-0.4-0.2-0.7-0.4-1-0.7
				c-0.3-0.3-0.5-0.6-0.7-1c-0.4-1-0.3-2,0.1-2.9c0.2-0.4,0.6-0.8,1-1.1c0.4-0.3,0.9-0.5,1.4-0.7c0.5-0.2,1.1-0.2,1.6-0.2
				c0.7,0,1.3,0.1,2,0.3c0.6,0.2,1.2,0.6,1.6,1.1L275.5,21.2z"/>
			<path class="st0" d="M294.5,30.5c1.4,0,2.7-0.5,3.6-1.5c0.4-0.5,0.8-1.1,1-1.7c0.3-0.6,0.4-1.3,0.4-2c0-0.7-0.1-1.4-0.4-2
				c-0.2-0.6-0.6-1.2-1-1.7c-0.4-0.5-1-0.9-1.6-1.1c-1.3-0.6-2.8-0.6-4.1,0c-0.6,0.3-1.1,0.6-1.6,1.1c-0.4,0.5-0.8,1-1,1.7
				c-0.2,0.7-0.4,1.3-0.4,2c0,0.7,0.1,1.4,0.4,2c0.2,0.6,0.6,1.2,1,1.7c0.4,0.5,1,0.9,1.6,1.1C293.1,30.3,293.8,30.5,294.5,30.5
				 M294.5,31.9c-0.9,0-1.8-0.2-2.6-0.5c-0.8-0.3-1.5-0.8-2.1-1.4c-0.6-0.6-1-1.3-1.3-2.1c-0.3-0.8-0.5-1.7-0.5-2.6
				c0-0.9,0.2-1.8,0.5-2.6c0.3-0.8,0.8-1.5,1.4-2.1c0.6-0.6,1.3-1.1,2.1-1.4c1.7-0.7,3.6-0.7,5.3,0c0.8,0.3,1.5,0.8,2.1,1.4
				c0.6,0.6,1.1,1.3,1.4,2.1c0.3,0.8,0.5,1.7,0.5,2.7c0,0.9-0.2,1.8-0.5,2.6c-0.3,0.8-0.8,1.5-1.4,2.1c-0.6,0.6-1.3,1.1-2.1,1.4
				C296.3,31.7,295.4,31.9,294.5,31.9"/>
			<path class="st0" d="M314.3,24.5h2.5c0.6,0,1.3-0.1,1.8-0.5c0.9-0.8,1-2.1,0.2-3c-0.1-0.1-0.1-0.1-0.2-0.2
				c-0.5-0.4-1.2-0.5-1.8-0.5h-2.5L314.3,24.5z M312.8,18.9h3.7c0.6,0,1.1,0.1,1.7,0.2c0.5,0.1,1,0.3,1.4,0.6c0.4,0.3,0.7,0.6,1,1.1
				c0.3,0.5,0.4,1.1,0.4,1.6c0,0.6-0.1,1.2-0.4,1.7c-0.2,0.4-0.6,0.8-1,1.1c-0.4,0.3-0.9,0.4-1.3,0.6c-0.5,0.1-0.9,0.2-1.4,0.2h-2.5
				v5.7h-1.5L312.8,18.9z"/>
			<path class="st0" d="M334.1,24.5h2.5c0.6,0,1.3-0.1,1.8-0.5c0.9-0.8,0.9-2.1,0.2-3c-0.1-0.1-0.1-0.1-0.2-0.2
				c-0.5-0.4-1.2-0.5-1.8-0.5h-2.5L334.1,24.5z M332.6,18.9h3.7c0.6,0,1.1,0.1,1.7,0.2c0.5,0.1,1,0.3,1.4,0.6c0.4,0.3,0.7,0.6,1,1.1
				c0.3,0.5,0.4,1.1,0.4,1.6c0,0.6-0.1,1.2-0.4,1.7c-0.2,0.4-0.6,0.8-1,1.1c-0.4,0.3-0.9,0.4-1.4,0.6c-0.5,0.1-0.9,0.2-1.4,0.2h-2.5
				v5.7h-1.5L332.6,18.9z"/>
		</g>
	</g>
	<path class="st1" d="M202.6,45.8c-2.3,0-4.5-1.1-6.7-3.3l-4.6-4.6c2-2.9,3.5-7.4,4.3-13.5c0.1-1.5,0.5-3,1-4.5c0.4-0.7,1.3-1,2-0.8
		v-0.6h-9.5v0.5l1-0.1l0.4,0.1c1,0,2,0.2,2.9,0.6c0.6,0.3,0.9,1.1,0.9,2.4c-0.1,2.4-0.4,4.9-0.9,7.3c-0.4,2.8-1.5,5.4-3.1,7.7
		l-19.8-19.6c-4-3.9-6-7.1-6-9.6c0-2.9,2.3-5.3,5.2-5.3c0.2,0,0.4,0,0.5,0c2.3,0.1,4.5,0.7,6.4,1.9c2.2,1.3,4.2,3,5.8,5h0.6
		l-1.9-5.1c-1.5-0.9-3-1.6-4.6-2.2c-0.5-0.2-1-0.3-1.5-0.4c-3.1-0.8-8.4-0.8-11.2,2.3c-1.5,1.6-2.4,3.8-2.4,6c0,1.3,0.3,2.7,0.8,3.9
		c0.7,1.4,1.5,2.8,2.4,4.1c-3.4,0.5-6.4,2.3-8.7,4.8c-1.1,1.3-2,2.9-2.5,4.6c-0.4,1.6-0.6,3.3-0.6,4.9l0,0c0,2.6,0.8,5.1,2.2,7.2
		c0.7,1.1,1.5,2.2,2.4,3.1c2.3,2.2,5.1,3.7,8.1,4.6c1.9,0.5,3.8,0.8,5.7,0.8c2.2,0,4.5-0.2,6.7-0.8c3.8-0.9,7.4-2.9,10.1-5.7l0,0
		l1.5,1.4l0,0c2.2,2.2,6.1,5.5,11.9,4.3c2.1-0.4,4.1-1.2,5.9-2.4v-0.7C206,45.2,204.3,45.8,202.6,45.8z M165.7,19
		c0.8,1,1.7,2,2.6,2.9c1.3,1.4,2,2.1,2.2,2.2l17,16.5l-0.4,0.4c-1.5,1.3-3.2,2.3-4.9,3.2c-2,0.7-4.1,1.1-6.2,1
		c-5,0-9.8-1.9-13.4-5.4l0,0c-3.9-3.6-5.9-7.5-5.9-11.7C156.5,23.5,159.6,20.4,165.7,19z"/>
</g>
</svg>
